TITLE ""
FILE "P1Q_t_0488-0496.mp3" MP3
  TRACK 01 AUDIO
    TITLE "P1Q_t_0488-0496_01"
    INDEX 01 00:00:00
  TRACK 02 AUDIO
    TITLE "P1Q_t_0488-0496_02"
    INDEX 01 00:01:08
  TRACK 03 AUDIO
    TITLE "P1Q_t_0488-0496_03"
    INDEX 01 00:01:29
  TRACK 04 AUDIO
    TITLE "P1Q_t_0488-0496_04"
    INDEX 01 00:03:58
  TRACK 05 AUDIO
    TITLE "P1Q_t_0488-0496_05"
    INDEX 01 00:04:02
  TRACK 06 AUDIO
    TITLE "P1Q_t_0488-0496_06"
    INDEX 01 00:07:46
  TRACK 07 AUDIO
    TITLE "P1Q_t_0488-0496_07"
    INDEX 01 00:08:16
  TRACK 08 AUDIO
    TITLE "P1Q_t_0488-0496_08"
    INDEX 01 00:09:23
  TRACK 09 AUDIO
    TITLE "P1Q_t_0488-0496_09"
    INDEX 01 00:09:43
  TRACK 10 AUDIO
    TITLE "P1Q_t_0488-0496_10"
    INDEX 01 00:12:17
  TRACK 11 AUDIO
    TITLE "P1Q_t_0488-0496_11"
    INDEX 01 00:12:37
  TRACK 12 AUDIO
    TITLE "P1Q_t_0488-0496_12"
    INDEX 01 00:17:38
  TRACK 13 AUDIO
    TITLE "P1Q_t_0488-0496_13"
    INDEX 01 00:18:08
  TRACK 14 AUDIO
    TITLE "P1Q_t_0488-0496_14"
    INDEX 01 00:19:43
  TRACK 15 AUDIO
    TITLE "P1Q_t_0488-0496_15"
    INDEX 01 00:19:66
  TRACK 16 AUDIO
    TITLE "P1Q_t_0488-0496_16"
    INDEX 01 00:23:19
  TRACK 17 AUDIO
    TITLE "P1Q_t_0488-0496_17"
    INDEX 01 00:23:41
  TRACK 18 AUDIO
    TITLE "P1Q_t_0488-0496_18"
    INDEX 01 00:29:57
  TRACK 19 AUDIO
    TITLE "P1Q_t_0488-0496_19"
    INDEX 01 00:30:29
  TRACK 20 AUDIO
    TITLE "P1Q_t_0488-0496_20"
    INDEX 01 00:31:34
  TRACK 21 AUDIO
    TITLE "P1Q_t_0488-0496_21"
    INDEX 01 00:31:62
  TRACK 22 AUDIO
    TITLE "P1Q_t_0488-0496_22"
    INDEX 01 00:35:22
  TRACK 23 AUDIO
    TITLE "P1Q_t_0488-0496_23"
    INDEX 01 00:35:40
  TRACK 24 AUDIO
    TITLE "P1Q_t_0488-0496_24"
    INDEX 01 00:40:39
  TRACK 25 AUDIO
    TITLE "P1Q_t_0488-0496_25"
    INDEX 01 00:41:15
  TRACK 26 AUDIO
    TITLE "P1Q_t_0488-0496_26"
    INDEX 01 00:42:46
  TRACK 27 AUDIO
    TITLE "P1Q_t_0488-0496_27"
    INDEX 01 00:42:67
  TRACK 28 AUDIO
    TITLE "P1Q_t_0488-0496_28"
    INDEX 01 00:45:48
  TRACK 29 AUDIO
    TITLE "P1Q_t_0488-0496_29"
    INDEX 01 00:45:68
  TRACK 30 AUDIO
    TITLE "P1Q_t_0488-0496_30"
    INDEX 01 00:49:66
  TRACK 31 AUDIO
    TITLE "P1Q_t_0488-0496_31"
    INDEX 01 00:50:40
  TRACK 32 AUDIO
    TITLE "P1Q_t_0488-0496_32"
    INDEX 01 00:51:70
  TRACK 33 AUDIO
    TITLE "P1Q_t_0488-0496_33"
    INDEX 01 00:52:13
  TRACK 34 AUDIO
    TITLE "P1Q_t_0488-0496_34"
    INDEX 01 00:55:05
  TRACK 35 AUDIO
    TITLE "P1Q_t_0488-0496_35"
    INDEX 01 00:55:31
  TRACK 36 AUDIO
    TITLE "P1Q_t_0488-0496_36"
    INDEX 01 01:00:42
  TRACK 37 AUDIO
    TITLE "P1Q_t_0488-0496_37"
    INDEX 01 01:01:12
  TRACK 38 AUDIO
    TITLE "P1Q_t_0488-0496_38"
    INDEX 01 01:02:23
  TRACK 39 AUDIO
    TITLE "P1Q_t_0488-0496_39"
    INDEX 01 01:02:45
  TRACK 40 AUDIO
    TITLE "P1Q_t_0488-0496_40"
    INDEX 01 01:05:22
  TRACK 41 AUDIO
    TITLE "P1Q_t_0488-0496_41"
    INDEX 01 01:05:41
  TRACK 42 AUDIO
    TITLE "P1Q_t_0488-0496_42"
    INDEX 01 01:09:47
  TRACK 43 AUDIO
    TITLE "P1Q_t_0488-0496_43"
    INDEX 01 01:10:23
  TRACK 44 AUDIO
    TITLE "P1Q_t_0488-0496_44"
    INDEX 01 01:11:32
  TRACK 45 AUDIO
    TITLE "P1Q_t_0488-0496_45"
    INDEX 01 01:11:53
  TRACK 46 AUDIO
    TITLE "P1Q_t_0488-0496_46"
    INDEX 01 01:13:45
  TRACK 47 AUDIO
    TITLE "P1Q_t_0488-0496_47"
    INDEX 01 01:13:64
  TRACK 48 AUDIO
    TITLE "P1Q_t_0488-0496_48"
    INDEX 01 01:18:63
  TRACK 49 AUDIO
    TITLE "P1Q_t_0488-0496_49"
    INDEX 01 01:19:35
  TRACK 50 AUDIO
    TITLE "P1Q_t_0488-0496_50"
    INDEX 01 01:20:41
  TRACK 51 AUDIO
    TITLE "P1Q_t_0488-0496_51"
    INDEX 01 01:21:11
  TRACK 52 AUDIO
    TITLE "P1Q_t_0488-0496_52"
    INDEX 01 01:22:26
  TRACK 53 AUDIO
    TITLE "P1Q_t_0488-0496_53"
    INDEX 01 01:22:47
  TRACK 54 AUDIO
    TITLE "P1Q_t_0488-0496_54"
    INDEX 01 01:24:42
  TRACK 55 AUDIO
    TITLE "P1Q_t_0488-0496_55"
    INDEX 01 01:24:72
  TRACK 56 AUDIO
    TITLE "P1Q_t_0488-0496_56"
    INDEX 01 01:30:16
